<svg id="Capa_1" enable-background="new 0 0 512 512" height="512" viewBox="0 0 512 512" width="512" xmlns="http://www.w3.org/2000/svg"><g><path d="m432.796 120.994c-4.268 0-7.727-3.411-7.727-7.619v-35.761c0-34.394-28.385-62.376-63.275-62.376s-63.275 27.982-63.275 62.376v35.762c0 4.208-3.459 7.619-7.727 7.619s-7.727-3.411-7.727-7.619v-35.762c0-42.796 35.318-77.614 78.729-77.614s78.729 34.818 78.729 77.614v35.762c0 4.207-3.459 7.618-7.727 7.618z" fill="#aa593d"/><path d="m452.509 103.974v387.807c0 11.167-9.183 20.219-20.51 20.219h59.491c11.327 0 20.51-9.054 20.51-20.222v-382.725c0-2.805-2.306-5.079-5.151-5.079z" fill="#e7a561"/><path d="m432.146 512h-282.65c-11.247 0-20.364-9.117-20.364-20.364v-382.547c0-2.825 2.29-5.115 5.115-5.115h318.262v387.663c0 11.246-9.117 20.363-20.363 20.363z" fill="#f9ef63"/><path d="m471.09 491.779v-387.805h-18.58v387.807c0 11.167-9.183 20.219-20.51 20.219h18.582c11.326 0 20.508-9.053 20.508-20.221z" fill="#e49542"/><path d="m433.929 103.974v387.806c0 11.168-9.182 20.221-20.508 20.221h18.581c11.326 0 20.508-9.053 20.508-20.221v-387.806z" fill="#f1d333"/><path d="m212.194 242.113v256.62c0 7.327-6.025 13.267-13.458 13.267h39.036c7.433 0 13.458-5.941 13.458-13.27v-251.538c0-2.805-2.306-5.079-5.151-5.079z" fill="#d82e3d"/><path d="m230.774 498.733v-256.62h-18.581v256.62c0 7.328-6.025 13.267-13.458 13.267h18.581c7.433 0 13.458-5.94 13.458-13.267z" fill="#c32430"/><path d="m199.609 258.863c-4.267 0-7.727-3.411-7.727-7.619v-26.61c0-21.125-17.434-38.311-38.863-38.311s-38.863 17.186-38.863 38.311v26.61c0 4.208-3.459 7.619-7.727 7.619-4.267 0-7.727-3.411-7.727-7.619v-26.61c0-29.527 24.366-53.548 54.317-53.548 29.95 0 54.317 24.021 54.317 53.548v26.61c0 4.208-3.459 7.619-7.727 7.619z" fill="#aa593d"/><path d="m198.831 512h-185.469c-7.38 0-13.362-5.983-13.362-13.362v-251.41c0-2.825 2.29-5.115 5.115-5.115h207.079v256.525c0 7.379-5.983 13.362-13.363 13.362z" fill="#dd636e"/><path d="m193.613 242.113v256.619c0 7.328-6.025 13.268-13.457 13.268h18.581c7.432 0 13.457-5.94 13.457-13.268v-256.619z" fill="#da4a54"/><ellipse cx="219.79" cy="155.755" rx="7.027" ry="6.927"/><ellipse cx="361.794" cy="155.755" rx="7.027" ry="6.927"/><path d="m66.866 275.91c0-3.826-3.146-6.927-7.027-6.927s-7.027 3.101-7.027 6.927 3.146 6.927 7.027 6.927 7.027-3.101 7.027-6.927z"/><g><g><path d="m160.046 275.91c0-3.826-3.146-6.927-7.027-6.927s-7.027 3.101-7.027 6.927 3.146 6.927 7.027 6.927 7.027-3.101 7.027-6.927z" fill="#8c808a"/><g><path d="m219.791 141.209c-8.135 0-14.754 6.525-14.754 14.546s6.619 14.546 14.754 14.546 14.753-6.525 14.753-14.546-6.619-14.546-14.753-14.546z" fill="#aa593d"/><path d="m361.794 141.209c-8.135 0-14.753 6.525-14.753 14.546s6.618 14.546 14.753 14.546 14.753-6.525 14.753-14.546-6.618-14.546-14.753-14.546z" fill="#aa593d"/><g fill="#f9ef63"><path d="m59.839 261.364c-8.135 0-14.753 6.525-14.753 14.546 0 8.02 6.618 14.546 14.753 14.546s14.754-6.525 14.754-14.546-6.619-14.546-14.754-14.546z"/><path d="m153.019 261.364c-8.135 0-14.753 6.525-14.753 14.546 0 8.02 6.619 14.546 14.753 14.546 8.135 0 14.754-6.525 14.754-14.546s-6.619-14.546-14.754-14.546z"/></g></g></g></g><g fill="#e49542"><path d="m153.019 283.529c-4.267 0-7.727-3.411-7.727-7.619v-51.275c0-21.125-17.434-38.311-38.863-38.311s-38.864 17.186-38.864 38.311v51.275c0 4.207-3.459 7.619-7.727 7.619-4.267 0-7.727-3.411-7.727-7.619v-51.275c0-29.527 24.367-53.548 54.317-53.548s54.317 24.021 54.317 53.548v51.275c.001 4.207-3.459 7.619-7.726 7.619z"/><path d="m361.794 163.374c-4.268 0-7.727-3.411-7.727-7.619v-78.141c0-34.394-28.385-62.376-63.274-62.376-34.89 0-63.275 27.982-63.275 62.376v78.141c0 4.208-3.459 7.619-7.727 7.619-4.267 0-7.727-3.411-7.727-7.619v-78.141c0-42.796 35.317-77.614 78.728-77.614s78.729 34.818 78.729 77.614v78.141c0 4.208-3.459 7.619-7.727 7.619z"/></g></g></svg>