<?xml version="1.0" encoding="utf-8"?>
<!-- Generator: Adobe Illustrator 15.0.0, SVG Export Plug-In . SVG Version: 6.00 Build 0)  -->
<!DOCTYPE svg PUBLIC "-//W3C//DTD SVG 1.1//EN" "http://www.w3.org/Graphics/SVG/1.1/DTD/svg11.dtd">
<svg version="1.1" id="Layer_1" xmlns="http://www.w3.org/2000/svg" xmlns:xlink="http://www.w3.org/1999/xlink" x="0px" y="0px"
	 width="24px" height="24px" viewBox="0 0 24 24" enable-background="new 0 0 24 24" xml:space="preserve">
<g>
	<g>
		<g>
			<path d="M20.541,6.878c-0.363-1.459-1.625-2.531-3.057-2.531H6.195c-1.731,0-3.164,1.504-3.164,3.375v5.586
				c0,1.574,1.048,2.942,2.459,3.284c0.342,1.459,1.582,2.531,3.057,2.531h0.47v3.375c0,0.182,0.107,0.364,0.256,0.456
				C9.338,22.978,9.403,23,9.488,23c0.107,0,0.192-0.045,0.278-0.113l4.576-3.763h5.494c1.731,0,3.164-1.506,3.164-3.376v-5.586
				C23,8.566,21.952,7.221,20.541,6.878z M5.383,10.162v5.358c-0.833-0.342-1.411-1.208-1.411-2.212V7.722
				c0-1.299,1.005-2.371,2.223-2.371h11.311c0.897,0,1.688,0.593,2.031,1.436H8.547C6.815,6.787,5.383,8.292,5.383,10.162z
				 M22.081,15.748H22.06c0,1.301-1.005,2.373-2.224,2.373h-5.645c-0.107,0-0.214,0.045-0.277,0.113l-3.956,3.261v-2.873
				c0-0.273-0.214-0.501-0.471-0.501h-0.94c-1.219,0-2.224-1.072-2.224-2.373v-5.586c0-1.3,1.005-2.371,2.224-2.371h11.31
				c1.219,0,2.224,1.071,2.224,2.371V15.748z"/>
			<path d="M19.002,10.002H9.381c-0.256,0-0.47,0.228-0.47,0.502c0,0.273,0.213,0.502,0.47,0.502h9.621
				c0.257,0,0.471-0.229,0.471-0.502C19.473,10.23,19.259,10.002,19.002,10.002z"/>
			<path d="M19.002,12.191H9.381c-0.256,0-0.47,0.229-0.47,0.502s0.213,0.502,0.47,0.502h9.621c0.257,0,0.471-0.229,0.471-0.502
				S19.259,12.191,19.002,12.191z"/>
			<path d="M19.002,14.403H9.381c-0.256,0-0.47,0.229-0.47,0.502s0.213,0.502,0.47,0.502h9.621c0.257,0,0.471-0.229,0.471-0.502
				C19.473,14.608,19.259,14.403,19.002,14.403z"/>
		</g>
	</g>
</g>
</svg>
