<?xml version="1.0" encoding="utf-8"?>
<!-- Generator: Adobe Illustrator 15.0.0, SVG Export Plug-In . SVG Version: 6.00 Build 0)  -->
<!DOCTYPE svg PUBLIC "-//W3C//DTD SVG 1.1//EN" "http://www.w3.org/Graphics/SVG/1.1/DTD/svg11.dtd">
<svg version="1.1" id="Layer_1" xmlns="http://www.w3.org/2000/svg" xmlns:xlink="http://www.w3.org/1999/xlink" x="0px" y="0px"
	 width="24px" height="24px" viewBox="0 0 24 24" enable-background="new 0 0 24 24" xml:space="preserve">
<g>
	<g>
		<g>
			<path d="M20.718,4.141c-0.421-1.695-1.885-2.939-3.541-2.939H4.1c-2.006,0-3.666,1.747-3.666,3.92v6.486
				c0,1.827,1.213,3.416,2.849,3.813c0.396,1.694,1.831,2.938,3.541,2.938h0.544v3.92c0,0.21,0.123,0.421,0.298,0.531
				c0.073,0.027,0.147,0.052,0.248,0.052c0.124,0,0.222-0.052,0.321-0.132l5.302-4.37H19.9c2.004,0,3.666-1.748,3.666-3.92V7.954
				C23.566,6.101,22.353,4.539,20.718,4.141z M3.159,7.954v6.222c-0.965-0.397-1.633-1.402-1.633-2.567V5.122
				c0-1.51,1.163-2.753,2.574-2.753h13.102c1.039,0,1.954,0.687,2.354,1.667H6.824C4.817,4.035,3.159,5.783,3.159,7.954z
				 M22.502,14.44h-0.025c0,1.512-1.164,2.756-2.576,2.756h-6.538c-0.125,0-0.249,0.053-0.322,0.132l-4.582,3.786v-3.336
				c0-0.316-0.249-0.582-0.546-0.582H6.824c-1.412,0-2.575-1.244-2.575-2.756V7.954c0-1.51,1.164-2.753,2.575-2.753h13.1
				c1.412,0,2.578,1.243,2.578,2.753V14.44z"/>
			<path d="M18.935,7.768H7.79c-0.296,0-0.543,0.266-0.543,0.583c0,0.317,0.245,0.583,0.543,0.583h11.145
				c0.298,0,0.546-0.266,0.546-0.583C19.48,8.034,19.232,7.768,18.935,7.768z"/>
			<path d="M18.935,10.312H7.79c-0.296,0-0.543,0.265-0.543,0.582c0,0.317,0.245,0.584,0.543,0.584h11.145
				c0.298,0,0.546-0.267,0.546-0.584C19.48,10.576,19.232,10.312,18.935,10.312z"/>
			<path d="M18.935,12.878H7.79c-0.296,0-0.543,0.267-0.543,0.584c0,0.316,0.245,0.583,0.543,0.583h11.145
				c0.298,0,0.546-0.267,0.546-0.583C19.48,13.116,19.232,12.878,18.935,12.878z"/>
		</g>
	</g>
</g>
</svg>
