<?xml version="1.0" encoding="utf-8"?>
<!-- Generator: Adobe Illustrator 15.0.0, SVG Export Plug-In . SVG Version: 6.00 Build 0)  -->
<!DOCTYPE svg PUBLIC "-//W3C//DTD SVG 1.1//EN" "http://www.w3.org/Graphics/SVG/1.1/DTD/svg11.dtd">
<svg version="1.1" id="Layer_1" xmlns="http://www.w3.org/2000/svg" xmlns:xlink="http://www.w3.org/1999/xlink" x="0px" y="0px"
	 width="180px" height="60px" viewBox="0 0 180 60" enable-background="new 0 0 180 60" xml:space="preserve">
<g>
	<g>
		<g>
			<path fill="#F37778" d="M27.786,53.482c-12.839,0-23.28-10.569-23.28-23.567c0-12.993,10.44-23.569,23.28-23.569
				c12.833,0,23.276,10.576,23.276,23.569C51.062,42.913,40.619,53.482,27.786,53.482z M27.786,6.846
				c-12.566,0-22.788,10.35-22.788,23.069c0,12.728,10.222,23.072,22.788,23.072c12.562,0,22.787-10.345,22.787-23.072
				C50.572,17.196,40.347,6.846,27.786,6.846z"/>
		</g>
	</g>
	<g>
		<g>
			<path fill="#F37778" d="M62.943,24.239c0.7,0,1.041-0.073,1.269-0.142c0.219-0.066,0.358-0.141,0.668-0.141
				c0.632,0,1.953,1.554,1.953,3.732c0,1.009-0.42,1.675-1.251,1.675c-1.416,0-1.403-2.381-2.234-2.381
				c-0.636,0-0.567,1.089-0.567,1.252c0,2.478-0.001,3.718-0.001,6.197c0,2.398,1.495,1.249,1.495,2.664
				c0,0.629-0.305,1.516-3.351,1.516c-0.831,0-3.874,0.041-3.874-1.516c0-1.068,1.024-0.652,1.331-1.416
				c0.167-0.416,0.232-1.633,0.248-2.14c0.053-1.784,0.078-2.676,0.13-4.459c0.063-2.117-0.279-2.098-0.505-2.098
				c-0.736,0-1.094,2.38-2.41,2.38c-0.636,0-1.011-0.726-1.011-1.452c0-1.715,1.173-3.954,2.1-3.954c0.115,0,0.302,0.07,0.605,0.14
				c0.296,0.068,0.747,0.143,1.399,0.143C60.539,24.239,61.341,24.239,62.943,24.239z"/>
			<path fill="#F37778" d="M79.137,35.057c0,0.604,0.064,0.905,0.506,1.208c0.326,0.225,0.552,0.347,0.552,0.849
				c0,0.487-0.031,1.498-3.241,1.498c-0.716,0-2.773-0.053-2.8-1.376c-0.031-1.525,1.141,0.16,1.141-3.935
				c0-1.092-0.193-1.053-1.009-1.053c-2.279,0-2.069,0.082-2.069,1.9c0,2.764,1.011,1.652,1.011,2.965
				c0,1.414-2.378,1.498-3.158,1.498c-0.751,0-3.014-0.084-3.014-1.454c0-0.425,0.246-0.686,0.52-0.847
				c0.588-0.347,0.798-0.287,0.798-4.508c0-5.366-0.063-4.923-0.667-5.325c-0.242-0.161-0.537-0.344-0.537-0.746
				c0-1.554,2.721-1.714,3.631-1.714c0.684,0,2.573,0.098,2.573,1.309c0,0.626-0.28,0.862-0.652,1.132
				c-0.393,0.285-0.506,0.525-0.506,2.32c0,1.13,0.424,0.988,1.208,0.988c0.333,0,0.498-0.001,0.831-0.001
				c1.074,0,1.042-0.2,1.042-0.828c0-2.198-0.284-2.339-0.489-2.481c-0.309-0.214-0.604-0.404-0.604-0.928
				c0-0.382-0.064-1.512,3.177-1.512c0.764,0,2.932,0.02,2.932,1.433c0,0.443-0.184,0.761-0.506,0.947
				c-0.466,0.27-0.668,0.202-0.668,3.408C79.138,31.905,79.137,32.956,79.137,35.057z"/>
			<path fill="#F37778" d="M81.998,28.434c0-3.126-1.238-1.833-1.238-3.086c0-1.108,1.273-1.251,1.922-1.251
				c0.342,0,0.679,0.031,1.011,0.062c0.318,0.029,0.668,0.08,0.995,0.08c0.521,0,1.05-0.05,1.58-0.081
				c0.513-0.029,1.059-0.061,1.58-0.061c1.842,0,3.978,1.009,3.978,3.691c0,1.213-0.524,2.373-1.386,2.93
				c-0.146,0.094-0.264,0.162-0.264,0.405c0,0.302,0.217,0.387,0.41,0.481c1.097,0.541,1.646,1.454,1.875,3.632
				c0.196,1.875,1.254,0.75,1.254,1.979c0,0.766-0.749,1.576-2.592,1.576c-2.607,0-2.93-1.864-3.438-4.522
				c-0.178-0.931-0.453-1.836-1.353-1.836c-0.358,0-0.486,0.058-0.486,1.33c0,0.585,0.032,1.394,0.111,1.959
				c0.131,0.927,0.963,0.646,0.963,1.617c0,0.727-0.41,1.271-3.047,1.271c-0.78,0-3.094,0-3.094-1.474
				c0-1.054,1.22-0.326,1.22-2.949C81.997,31.887,81.998,30.734,81.998,28.434z M85.778,29.324c-0.032,0.526-0.112,0.97,0.425,0.97
				c1.059,0,1.401-0.727,1.401-1.979c0-0.989-0.196-1.997-1.143-1.997c-0.601,0-0.585,0.462-0.617,1.088
				C85.818,28.172,85.805,28.557,85.778,29.324z"/>
			<path fill="#F37778" d="M95.4,30.313c0-2.564-0.162-3.149-0.342-3.431c-0.372-0.584-1.012-0.646-1.012-1.413
				c0-1.452,3.324-1.452,3.65-1.452c0.979,0,2.982,0.038,2.982,1.41c0,0.729-0.622,0.687-0.992,1.21
				c-0.311,0.44-0.326,2.262-0.326,3.676c0,0.8,0,1.197,0,1.997c0,3.593,0.195,3.511,0.521,3.755
				c0.406,0.303,0.797,0.406,0.797,1.03c0,0.604-0.144,1.516-3.715,1.516c-0.685,0-2.74-0.024-2.74-1.313
				c0-0.648,0.559-0.754,0.817-1.133c0.193-0.282,0.358-1.028,0.358-3.855C95.4,31.511,95.4,31.113,95.4,30.313z"/>
			<path fill="#F37778" d="M102.568,30.133c0.016-0.829,0.034-2.125-0.052-2.909c-0.189-1.73-1.253-0.987-1.253-2.099
				c0-0.765,0.717-1.088,1.238-1.088c0.426,0,3.354,0.201,4.707,0.201c0.326,0,3.6-0.202,3.826-0.202
				c0.637,0,1.305,1.655,1.305,3.027c0,0.687-0.263,1.393-0.879,1.393c-1.126,0-0.538-2.079-3.664-2.079
				c-0.994,0-1.416-0.102-1.416,2.824c0,0.365,0.017,0.706,0.959,0.706c1.253,0,0.458-1.855,1.596-1.855
				c0.931,0,0.992,2.202,0.992,2.986c0,0.95-0.082,3.393-1.188,3.393c-1.042,0,0.031-2.281-1.711-2.281
				c-0.716,0-0.603,0.175-0.634,2.236c-0.045,2.967,1.581,1.338,1.581,2.869c0,0.468,0.146,1.355-3.813,1.355
				c-2.606,0-3.032-0.467-3.032-1.33c0-1.132,0.901-0.621,1.223-1.679c0.169-0.555,0.215-1.999,0.215-2.667
				C102.568,31.814,102.568,31.254,102.568,30.133z"/>
			<path fill="#F37778" d="M120.328,24.239c0.7,0,1.041-0.074,1.27-0.143c0.22-0.066,0.357-0.14,0.668-0.14
				c0.637,0,1.953,1.554,1.953,3.732c0,1.009-0.424,1.674-1.255,1.674c-1.416,0-1.398-2.38-2.229-2.38
				c-0.637,0-0.567,1.089-0.567,1.252c0,2.478-0.001,3.718-0.001,6.197c0,2.398,1.493,1.249,1.493,2.664
				c0,0.629-0.304,1.516-3.35,1.516c-0.831,0-3.876,0.041-3.876-1.516c0-1.068,1.025-0.652,1.332-1.416
				c0.167-0.416,0.234-1.633,0.25-2.14c0.053-1.784,0.077-2.677,0.13-4.46c0.063-2.117-0.28-2.098-0.507-2.098
				c-0.735,0-1.093,2.381-2.409,2.381c-0.637,0-1.009-0.726-1.009-1.452c0-1.715,1.172-3.955,2.099-3.955
				c0.115,0,0.303,0.071,0.606,0.141c0.296,0.068,0.744,0.143,1.396,0.143C117.924,24.239,118.727,24.239,120.328,24.239z"/>
			<path fill="#F37778" d="M129.997,28.655c0-2.098,1.628-4.699,4.788-4.699c1.043,0,2.213,0.565,2.456,0.565
				c0.23,0,0.46-0.283,0.801-0.282c0.551,0,1.774,1.557,1.774,3.252c0,0.687-0.352,1.373-0.947,1.371
				c-1.08-0.003-1.721-2.304-3.416-2.304c-0.506,0-1.044,0.282-1.044,1.008c0,1.596,2.242,1.173,4.119,2.729
				c1.002,0.831,1.5,1.843,1.5,3.354c0,2.364-1.545,5.021-5.341,5.021c-1.074,0-2.922-0.341-3.843-0.972
				c-0.782-0.536-1.158-2.684-1.158-3.712c0-0.546,0.195-1.09,0.685-1.09c1.157,0,0.958,3.209,3.958,3.209
				c0.358,0,1.255-0.221,1.255-0.991c0-1.453-2.232-1.091-4.039-2.885C130.652,31.343,129.997,30.112,129.997,28.655z"/>
			<path fill="#F37778" d="M152.096,35.265c0,0.604,0.059,0.911,0.471,1.224c0.305,0.232,0.516,0.357,0.516,0.859
				c0,0.487-0.018,1.492-3.03,1.423c-0.672-0.016-2.614-0.105-2.64-1.431c-0.029-1.528,1.078,0.184,1.078-3.912
				c0-1.092-0.184-1.057-0.955-1.072c-2.157-0.043-1.967,0.047-1.967,1.865c0,2.764,0.963,1.667,0.963,2.979
				c0,1.414-2.271,1.46-3.022,1.45c-0.725-0.01-2.931-0.111-2.931-1.481c0-0.425,0.241-0.685,0.51-0.844
				c0.575-0.342,0.781-0.279,0.781-4.5c0-5.366-0.063-4.925-0.652-5.332c-0.236-0.163-0.524-0.348-0.524-0.75
				c0-1.554,2.646-1.689,3.521-1.676c0.657,0.009,2.458,0.14,2.458,1.351c0,0.626-0.266,0.856-0.62,1.12
				c-0.373,0.278-0.483,0.516-0.483,2.312c0,1.13,0.404,0.996,1.148,1.01c0.315,0.006,0.474,0.007,0.788,0.014
				c1.017,0.02,0.985-0.179,0.985-0.808c0-2.198-0.269-2.344-0.463-2.49c-0.292-0.22-0.572-0.416-0.572-0.94
				c0-0.382-0.043-1.518,2.996-1.447c0.716,0.017,2.738,0.085,2.738,1.499c0,0.443-0.172,0.757-0.472,0.936
				c-0.434,0.258-0.622,0.188-0.622,3.395C152.096,32.116,152.096,33.164,152.096,35.265z"/>
			<path fill="#F37778" d="M153.76,31.516c0-4.281,2.557-7.239,5.859-7.152c4.175,0.11,5.809,5.048,5.809,7.65
				c0,4.338-2.903,7.14-5.994,7.058C156.242,38.987,153.76,35.813,153.76,31.516z M158.918,27.352
				c-0.847-0.022-1.271,1.136-1.271,2.128c0,1.716,0.908,6.562,2.544,6.604c0.925,0.024,1.319-1.035,1.319-2.127
				C161.51,32.119,160.688,27.399,158.918,27.352z"/>
			<path fill="#F37778" d="M167.455,27.897c0-1.516-1.436-0.877-1.436-2.149c0-0.807,0.678-0.975,1.156-0.965
				c0.389,0.007,0.76,0.056,1.146,0.063c2.25,0.04,3.644-0.23,4.31-0.224c2.157,0.021,4.29,1.615,4.29,4.642
				c0,3.009-2.056,4.624-4.26,4.602c-0.477-0.005-0.947-0.11-1.374-0.115c-0.188-0.002-0.249,0.098-0.249,0.322
				c0,0.468,0,0.703,0,1.171c0.046,2.521,1.198,1.484,1.198,2.655c0,1.313-2.268,1.346-2.968,1.335
				c-0.654-0.011-2.939-0.076-2.939-1.384c0-1.112,1.125-0.404,1.125-2.063C167.455,32.63,167.455,31.053,167.455,27.897z
				 M171.635,26.993c-0.616-0.007-0.596,0.234-0.596,0.638c0,1.211,0,1.817,0,3.028c0,0.424-0.143,0.886,0.709,0.896
				c1.04,0.012,1.454-0.995,1.454-2.228C173.202,28.058,172.69,27.005,171.635,26.993z"/>
		</g>
	</g>
	<path fill="#F37778" d="M8.264,30.08c0,0.327-0.264,0.599-0.59,0.599s-0.592-0.271-0.592-0.599c0-0.333,0.265-0.599,0.592-0.599
		S8.264,29.747,8.264,30.08z"/>
	<ellipse fill="#F37778" cx="48.629" cy="29.914" rx="0.589" ry="0.599"/>
	<path fill="#61CAE6" d="M27.914,9.106L27.914,9.106c-2.598,0-4.706,2.131-4.706,4.764v3.496h9.413V13.87
		C32.622,11.237,30.517,9.106,27.914,9.106z"/>
	<path fill="#010101" d="M32.622,18.001h-9.413c-0.347,0-0.628-0.284-0.628-0.635V13.87c0-2.977,2.394-5.401,5.334-5.401
		c2.946,0,5.336,2.425,5.336,5.401v3.496C33.25,17.717,32.971,18.001,32.622,18.001z M23.837,16.731h8.155V13.87
		c0-2.279-1.83-4.13-4.078-4.13s-4.077,1.852-4.077,4.13V16.731L23.837,16.731z"/>
	<polygon fill="#EAEAEA" points="41.725,20.541 14.109,20.541 15.99,17.366 39.838,17.366 	"/>
	<path fill="#010101" d="M41.725,21.177H14.109c-0.228,0-0.437-0.125-0.545-0.322c-0.112-0.201-0.11-0.443,0.006-0.64l1.883-3.177
		c0.11-0.192,0.316-0.306,0.537-0.306h23.848c0.218,0,0.427,0.114,0.542,0.306l1.88,3.177c0.119,0.197,0.123,0.439,0.011,0.64
		C42.152,21.053,41.95,21.177,41.725,21.177z M15.217,19.906h25.399l-1.13-1.905h-23.14L15.217,19.906z"/>
	<polygon fill="#F37778" points="36.457,23.972 27.9,21.948 30.046,12.662 38.6,14.688 	"/>
	<path fill="#0E0D0E" d="M36.457,24.606c-0.047,0-0.094-0.005-0.144-0.017l-8.557-2.025c-0.334-0.081-0.546-0.423-0.468-0.765
		l2.146-9.281c0.041-0.163,0.136-0.305,0.28-0.394c0.14-0.09,0.312-0.117,0.473-0.08l8.555,2.026
		c0.342,0.082,0.547,0.424,0.471,0.763l-2.147,9.283c-0.036,0.162-0.138,0.309-0.276,0.393
		C36.686,24.575,36.571,24.606,36.457,24.606z M28.655,21.471l7.333,1.737l1.855-8.044l-7.33-1.737L28.655,21.471z"/>
	<polygon fill="#F37778" points="28.383,22.42 17.886,23.68 16.554,12.292 27.052,11.037 	"/>
	<path fill="#010101" d="M17.71,24.317c-0.291,0-0.533-0.226-0.57-0.531l-1.209-10.747c-0.019-0.161,0.026-0.319,0.119-0.444
		c0.094-0.125,0.232-0.205,0.378-0.224l9.559-1.185c0.31-0.041,0.597,0.196,0.632,0.526l1.211,10.745
		c0.021,0.162-0.021,0.316-0.118,0.444c-0.089,0.125-0.231,0.205-0.379,0.226l-9.559,1.185C17.754,24.313,17.73,24.317,17.71,24.317
		z M17.133,13.493l1.075,9.557l8.423-1.044l-1.077-9.557L17.133,13.493z"/>
	<polygon fill="#61CAE6" points="33.91,25.975 23.805,28.434 21.243,17.667 31.353,15.206 	"/>
	<path fill="#010101" d="M23.805,29.074c-0.118,0-0.23-0.032-0.33-0.093c-0.142-0.091-0.246-0.229-0.286-0.392l-2.557-10.775
		c-0.04-0.164-0.011-0.337,0.078-0.482c0.086-0.144,0.224-0.245,0.386-0.285l10.106-2.46c0.342-0.08,0.684,0.129,0.761,0.469
		l2.558,10.772c0.044,0.166,0.014,0.338-0.075,0.481c-0.082,0.145-0.225,0.247-0.387,0.29l-10.11,2.459
		C23.9,29.068,23.85,29.074,23.805,29.074z M22.001,18.134l2.266,9.539l8.888-2.166l-2.263-9.537L22.001,18.134z"/>
	<polyline fill="#FFFFFF" points="41.896,24.012 42.977,45.322 12.851,45.322 14.109,20.541 41.725,20.541 	"/>
	<path fill="#F37778" d="M42.977,45.955H12.851c-0.171,0-0.335-0.07-0.456-0.186c-0.118-0.131-0.179-0.299-0.169-0.48l1.253-24.78
		c0.017-0.339,0.296-0.604,0.629-0.604h27.616c0.345,0,0.625,0.288,0.625,0.635c0,0.35-0.279,0.636-0.625,0.636H14.703
		l-1.189,23.507h28.802l-1.046-20.644c-0.015-0.349,0.255-0.65,0.599-0.667c0.343-0.015,0.639,0.253,0.656,0.602l1.079,21.313
		c0.01,0.182-0.055,0.35-0.173,0.48C43.309,45.885,43.146,45.955,42.977,45.955z"/>
	<rect x="18.188" y="21.177" fill="#F37879" width="10.04" height="23.507"/>
	<path fill="#FFFFFF" d="M32.622,23.084c0.696,0,1.255,0.568,1.255,1.27c0,0.702-0.559,1.27-1.255,1.27
		c-0.695,0-1.253-0.568-1.253-1.27C31.368,23.653,31.927,23.084,32.622,23.084z"/>
	<path fill="#010101" d="M32.647,26.26c-1.056,0-1.91-0.854-1.91-1.905c0-1.049,0.854-1.906,1.91-1.906
		c1.052,0,1.91,0.856,1.91,1.906C34.557,25.406,33.699,26.26,32.647,26.26z M32.647,23.717c-0.351,0-0.634,0.288-0.634,0.638
		c0,0.353,0.284,0.638,0.634,0.638c0.351,0,0.641-0.285,0.641-0.638C33.289,24.004,32.999,23.717,32.647,23.717z"/>
	<ellipse fill="#FFFFFF" cx="23.208" cy="24.354" rx="1.256" ry="1.27"/>
	<path fill="#010101" d="M23.208,26.26c-1.037,0-1.882-0.854-1.882-1.905c0-1.049,0.845-1.906,1.882-1.906
		c1.039,0,1.883,0.856,1.883,1.906C25.091,25.406,24.247,26.26,23.208,26.26z M23.208,23.717c-0.347,0-0.628,0.288-0.628,0.638
		c0,0.353,0.281,0.638,0.628,0.638c0.344,0,0.628-0.285,0.628-0.638C23.837,24.004,23.553,23.717,23.208,23.717z"/>
	<path fill="#010101" d="M27.914,33.891c-2.94,0-5.334-2.423-5.334-5.404v-3.494c0-0.354,0.281-0.638,0.628-0.638
		c0.344,0,0.628,0.284,0.628,0.638v3.494c0,2.272,1.829,4.13,4.077,4.13s4.078-1.857,4.078-4.13v-3.329
		c-0.015-0.051-0.019-0.111-0.019-0.166c0-0.354,0.251-0.638,0.602-0.638h0.046c0.349,0,0.629,0.284,0.629,0.638v3.494
		C33.25,31.468,30.86,33.891,27.914,33.891z"/>
</g>
</svg>
